<svg width="34" height="10" viewBox="0 0 34 10" fill="none" xmlns="http://www.w3.org/2000/svg">
<path d="M30.1898 9.16799C29.0858 9.16799 28.2418 8.85199 27.6578 8.21999C27.0738 7.57999 26.7818 6.71999 26.7818 5.63999C26.7818 4.92799 26.9058 4.31199 27.1538 3.79199C27.4098 3.26399 27.7898 2.85599 28.2938 2.56799C28.7978 2.27199 29.4298 2.12399 30.1898 2.12399C31.3018 2.12399 32.1458 2.44399 32.7218 3.08399C33.2978 3.71599 33.5858 4.56799 33.5858 5.63999C33.5858 6.33599 33.4578 6.95199 33.2018 7.48799C32.9458 8.01599 32.5658 8.42799 32.0618 8.72399C31.5578 9.01999 30.9338 9.16799 30.1898 9.16799ZM30.1658 7.76399C30.6138 7.76399 30.9858 7.67199 31.2818 7.48799C31.5778 7.30399 31.7978 7.05199 31.9418 6.73199C32.0858 6.40399 32.1578 6.03999 32.1578 5.63999C32.1578 5.23999 32.0858 4.87599 31.9418 4.54799C31.7978 4.21999 31.5778 3.95999 31.2818 3.76799C30.9938 3.57599 30.6218 3.47999 30.1658 3.47999C29.5258 3.47999 29.0338 3.67999 28.6898 4.07999C28.3538 4.47999 28.1858 4.99999 28.1858 5.63999C28.1858 6.03199 28.2578 6.39199 28.4018 6.71999C28.5538 7.03999 28.7738 7.29599 29.0618 7.48799C29.3498 7.67199 29.7178 7.76399 30.1658 7.76399Z" fill="black"/>
<path d="M23.1058 9.13199C22.7298 9.13199 22.3578 9.08799 21.9898 8.99999C21.6298 8.91199 21.3058 8.77199 21.0178 8.57999C20.7298 8.38799 20.4978 8.13999 20.3218 7.83599C20.1458 7.52399 20.0578 7.15599 20.0578 6.73199H21.5098C21.5098 6.76399 21.5178 6.82399 21.5338 6.91199C21.5498 6.99199 21.5898 7.08399 21.6538 7.18799C21.7258 7.29199 21.8218 7.39199 21.9418 7.48799C22.0618 7.58399 22.2258 7.66399 22.4338 7.72799C22.6418 7.79199 22.9018 7.82399 23.2138 7.82399C23.3898 7.82399 23.5498 7.80799 23.6938 7.77599C23.8458 7.74399 23.9778 7.69999 24.0898 7.64399C24.2018 7.58799 24.2858 7.51599 24.3418 7.42799C24.4058 7.33999 24.4378 7.24399 24.4378 7.13999C24.4378 6.93999 24.3578 6.78399 24.1978 6.67199C24.0458 6.55199 23.8418 6.45999 23.5858 6.39599C23.3298 6.32399 23.0458 6.25599 22.7338 6.19199C22.4298 6.11999 22.1258 6.03599 21.8218 5.93999C21.5258 5.84399 21.2538 5.71599 21.0058 5.55599C20.7578 5.39599 20.5658 5.18799 20.4298 4.93199C20.2938 4.67599 20.2338 4.35599 20.2498 3.97199C20.2818 3.58799 20.4138 3.25999 20.6458 2.98799C20.8858 2.70799 21.2178 2.49599 21.6418 2.35199C22.0738 2.19999 22.5818 2.12399 23.1658 2.12399C23.6538 2.12399 24.1098 2.21199 24.5338 2.38799C24.9578 2.55599 25.3018 2.81599 25.5658 3.16799C25.8298 3.51999 25.9618 3.96399 25.9618 4.49999H24.5578C24.5578 4.28399 24.5058 4.11199 24.4018 3.98399C24.2978 3.84799 24.1618 3.74399 23.9938 3.67199C23.8338 3.59999 23.6618 3.55199 23.4778 3.52799C23.3018 3.49599 23.1458 3.47999 23.0098 3.47999C22.6578 3.47999 22.3658 3.53199 22.1338 3.63599C21.9098 3.73999 21.7978 3.91199 21.7978 4.15199C21.7978 4.35999 21.8778 4.52399 22.0378 4.64399C22.1978 4.75599 22.4058 4.84799 22.6618 4.91999C22.9178 4.99199 23.2018 5.05999 23.5138 5.12399C23.8258 5.17999 24.1338 5.25599 24.4378 5.35199C24.7498 5.43999 25.0298 5.55999 25.2778 5.71199C25.5258 5.86399 25.7218 6.06799 25.8658 6.32399C26.0098 6.57199 26.0658 6.89599 26.0338 7.29599C26.0178 7.67999 25.8818 8.00799 25.6258 8.27999C25.3698 8.55199 25.0258 8.76399 24.5938 8.91599C24.1698 9.05999 23.6738 9.13199 23.1058 9.13199Z" fill="black"/>
<path d="M16.2738 9.13199C15.8978 9.13199 15.5258 9.08799 15.1578 8.99999C14.7978 8.91199 14.4738 8.77199 14.1858 8.57999C13.8978 8.38799 13.6658 8.13999 13.4898 7.83599C13.3138 7.52399 13.2258 7.15599 13.2258 6.73199H14.6778C14.6778 6.76399 14.6858 6.82399 14.7018 6.91199C14.7178 6.99199 14.7578 7.08399 14.8218 7.18799C14.8938 7.29199 14.9898 7.39199 15.1098 7.48799C15.2298 7.58399 15.3938 7.66399 15.6018 7.72799C15.8098 7.79199 16.0698 7.82399 16.3818 7.82399C16.5578 7.82399 16.7178 7.80799 16.8618 7.77599C17.0138 7.74399 17.1458 7.69999 17.2578 7.64399C17.3698 7.58799 17.4538 7.51599 17.5098 7.42799C17.5738 7.33999 17.6058 7.24399 17.6058 7.13999C17.6058 6.93999 17.5258 6.78399 17.3658 6.67199C17.2138 6.55199 17.0098 6.45999 16.7538 6.39599C16.4978 6.32399 16.2138 6.25599 15.9018 6.19199C15.5978 6.11999 15.2938 6.03599 14.9898 5.93999C14.6938 5.84399 14.4218 5.71599 14.1738 5.55599C13.9258 5.39599 13.7338 5.18799 13.5978 4.93199C13.4618 4.67599 13.4018 4.35599 13.4178 3.97199C13.4498 3.58799 13.5818 3.25999 13.8138 2.98799C14.0538 2.70799 14.3858 2.49599 14.8098 2.35199C15.2418 2.19999 15.7498 2.12399 16.3338 2.12399C16.8218 2.12399 17.2778 2.21199 17.7018 2.38799C18.1258 2.55599 18.4698 2.81599 18.7338 3.16799C18.9978 3.51999 19.1298 3.96399 19.1298 4.49999H17.7258C17.7258 4.28399 17.6738 4.11199 17.5698 3.98399C17.4658 3.84799 17.3298 3.74399 17.1618 3.67199C17.0018 3.59999 16.8298 3.55199 16.6458 3.52799C16.4698 3.49599 16.3138 3.47999 16.1778 3.47999C15.8258 3.47999 15.5338 3.53199 15.3018 3.63599C15.0778 3.73999 14.9658 3.91199 14.9658 4.15199C14.9658 4.35999 15.0458 4.52399 15.2058 4.64399C15.3658 4.75599 15.5738 4.84799 15.8298 4.91999C16.0858 4.99199 16.3698 5.05999 16.6818 5.12399C16.9938 5.17999 17.3018 5.25599 17.6058 5.35199C17.9178 5.43999 18.1978 5.55999 18.4458 5.71199C18.6938 5.86399 18.8898 6.06799 19.0338 6.32399C19.1778 6.57199 19.2338 6.89599 19.2018 7.29599C19.1858 7.67999 19.0498 8.00799 18.7938 8.27999C18.5378 8.55199 18.1938 8.76399 17.7618 8.91599C17.3378 9.05999 16.8418 9.13199 16.2738 9.13199Z" fill="black"/>
<path d="M9.30816 9.16799C8.32416 9.16799 7.57616 8.90399 7.06416 8.37599C6.56016 7.83999 6.30816 7.08799 6.30816 6.11999V2.24399H7.85616V6.10799C7.85616 6.45999 7.90016 6.74799 7.98816 6.97199C8.08416 7.18799 8.20416 7.35599 8.34816 7.47599C8.49216 7.59599 8.64816 7.67999 8.81616 7.72799C8.98416 7.76799 9.14816 7.78799 9.30816 7.78799C9.54816 7.78799 9.78016 7.74799 10.0042 7.66799C10.2282 7.58799 10.4122 7.42799 10.5562 7.18799C10.7002 6.93999 10.7722 6.57999 10.7722 6.10799V2.24399H12.3202V6.11999C12.3202 7.10399 12.0682 7.85999 11.5642 8.38799C11.0682 8.90799 10.3162 9.16799 9.30816 9.16799Z" fill="black"/>
<path d="M0.743999 8.96399V2.24399H2.196V8.96399H0.743999ZM0.743999 8.99999V7.76399H5.316V8.99999H0.743999Z" fill="black"/>
<path d="M28 0H32V1H28V0Z" fill="#EBB618"/>
</svg>
